<mxfile host="app.diagrams.net" modified="2024-07-05T02:19:47.479Z" agent="Mozilla/5.0 (Windows NT 10.0; Win64; x64) AppleWebKit/537.36 (KHTML, like Gecko) Chrome/126.0.0.0 Safari/537.36" version="24.6.4" etag="NH5CmKcT-MsL9VD3dxPu" type="github">
  <diagram name="หน้า-1" id="Rx8m1sHD4eZ3OD9Q6VKZ">
    <mxGraphModel>
      <root>
        <mxCell id="0" />
        <mxCell id="1" parent="0" />
      </root>
    </mxGraphModel>
  </diagram>
</mxfile>
